# xmcd
#
# Track frame offsets:
#	150
#	9198
#	25760
#	34565
#	51268
#	67434
#	79273
#	92086
#	105153
#	116614
#	129335
#	140676
#
# Disc length: 2073 seconds
#
# Revision: 1
# Processed by: cddbd v1.5.2PL0 Copyright (c) Steve Scherf et al.
# Submitted via: audiograbber 1.83.01
#
DISCID=9708170c
DTITLE=Pat Burns - BURNS
DYEAR=2014
DGENRE=Blues
TTITLE0=Fat Tuesday
TTITLE1=Forever and a Day
TTITLE2=Let It Fly
TTITLE3=Hey Hey Featuring Cynthia Becker
TTITLE4=Relax
TTITLE5=I'm Worried About You
TTITLE6=She's Gone Again
TTITLE7=Part Time Love
TTITLE8=Austin On My Mind
TTITLE9=I'm Goin' Home
TTITLE10=Just Another Goodbye Song
TTITLE11=Lullaby Featuring Kay Khan
EXTD=
EXTT0=
EXTT1=
EXTT2=
EXTT3=
EXTT4=
EXTT5=
EXTT6=
EXTT7=
EXTT8=
EXTT9=
EXTT10=
EXTT11=
PLAYORDER=
